<svg width="398" height="439" viewBox="0 0 398 439" fill="none" xmlns="http://www.w3.org/2000/svg">
<path d="M121.66 438.568C137.154 438.568 141.533 432.505 141.533 424.758C141.533 417.01 141.533 400.168 141.196 376.253C60.6911 393.432 43.5121 337.853 43.5121 337.853C30.3753 305.179 11.1753 296.084 11.1753 296.084C-15.0984 278.568 13.1964 278.905 13.1964 278.905C42.1648 280.926 57.6595 308.21 57.6595 308.21C83.5964 352 125.365 339.2 141.87 331.789C143.217 317.305 149.617 303.495 160.396 293.389C96.0595 286.316 28.3543 261.726 28.3543 152.589C28.0174 124.295 38.7964 96.6736 58.3332 76.1263C54.9648 69.0526 45.1964 40.0842 60.6911 0.673628C60.6911 0.673628 84.9437 -7.07374 140.523 29.9789C188.017 17.1789 237.87 17.1789 285.365 29.9789C340.27 -6.73689 364.86 0.673629 364.86 0.673629C380.354 39.7473 370.586 68.7157 367.891 76.1263C387.428 96.6736 397.87 124.295 397.533 152.589C397.533 262.063 329.828 285.979 265.154 293.053C275.26 301.474 284.691 318.989 284.691 345.6C284.691 384 284.354 414.316 284.354 423.41C284.354 430.821 287.723 436.884 304.228 436.884L121.66 438.568Z" fill="#ffffff"/>
</svg>
