<svg width="410" height="410" viewBox="0 0 410 410" fill="none" xmlns="http://www.w3.org/2000/svg">
<path d="M409.6 409.6L409.6 259.584C409.6 185.856 393.728 129.536 307.712 129.536C266.24 129.536 238.592 152.064 227.328 173.568L226.304 173.568L226.304 136.192L144.896 136.192L144.896 409.6L229.888 409.6L229.888 273.92C229.888 238.08 236.544 203.776 280.576 203.776C324.096 203.776 324.608 244.224 324.608 275.968L324.608 409.088L409.6 409.088L409.6 409.6ZM6.656 136.192L91.648 136.192L91.648 409.6L6.656 409.6L6.656 136.192ZM49.152 3.47868e-08C22.016 1.55816e-08 -1.55816e-08 22.016 -3.47868e-08 49.152C-5.3992e-08 76.288 22.016 98.816 49.152 98.816C76.288 98.816 98.304 76.288 98.304 49.152C98.304 22.016 76.288 5.3992e-08 49.152 3.47868e-08Z" fill="#ffffff"/>
</svg>
