<svg width="360" height="360" viewBox="0 0 360 360" fill="none" xmlns="http://www.w3.org/2000/svg">
<path d="M5 15C5 9.47715 9.47715 5 15 5L345 5C350.523 5 355 9.47715 355 15L355 345C355 350.523 350.523 355 345 355L15 355C9.47715 355 5 350.523 5 345L5 15Z" fill="#13161C"/>
<path fill-rule="evenodd" clip-rule="evenodd" d="M238.268 263.048C269.315 262.115 274.168 231.134 270.688 217.975C327.241 199.728 351.24 247.796 323.44 262.115C331.957 265.877 363.828 243.464 332.507 216.109C307.45 194.225 278.107 201.81 266.568 208.338C253.82 188.692 258.509 170.725 262.447 164.197C264.425 156.24 250.998 157.566 244.038 159.224C236.564 188.568 223.89 207.924 218.487 213.933C211.233 197.016 214.007 188.379 216.876 179.448C217.434 177.712 217.995 175.966 218.487 174.145C220.905 165.192 206.124 168.549 198.431 171.347C197.525 174.001 196.306 177.687 194.86 182.055L194.859 182.059C186.654 206.856 171.177 253.628 164.637 258.385C158.613 262.766 162.645 249.021 166.802 234.849C169.648 225.148 172.553 215.246 172.33 210.825C171.89 202.121 165.369 203.261 162.164 204.919C163.043 164.135 135.788 187.926 122.051 204.919L89.9055 224.191C-58.7321 133.423 166.835 25.5586 199.255 76.2272C227.279 126.895 105.017 173.523 89.9055 145.235C100.621 200.256 260.523 149.898 215.465 66.9013C175.077 5.66451 93.6602 56.6437 61.3317 83.6878C-29.8652 152.301 40.2723 204.182 67.1585 224.07C72.429 227.969 76.0375 230.638 76.4427 231.963C12.7015 266.032 16.2737 303.147 31.6591 314.96C78.9792 351.292 108.863 263.048 95.4001 234.139L114.632 221.705C105.841 248.438 111.885 268.954 114.632 274.549L114.687 274.66C116.971 279.312 120.051 285.587 131.392 283.875C141.558 282.341 147.235 262.219 149.525 252.789C149.496 253.546 149.439 254.474 149.375 255.524C148.832 264.395 147.754 282.006 158.317 279.212C170.973 275.864 184.53 238.371 192.725 215.704C197.339 202.944 200.254 194.882 200.353 200.256C200.517 209.183 204.026 217.777 206.582 224.039C208.299 228.243 209.586 231.397 209.145 232.895C208.266 235.88 195.774 252.79 189.638 260.872C178.648 273.057 188.356 275.067 194.583 274.549C233.487 269.824 230.758 240.252 224.53 226.057C231.564 216.11 240.466 197.251 244.038 189.066C244.038 199.013 250.265 212.483 253.379 217.975C225.245 249.806 229.752 262.115 238.268 263.048ZM84.6855 240.355C89.0816 268.022 69.0252 311.851 48.1442 298.172C22.4118 281.316 84.6855 240.355 84.6855 240.355ZM200.645 260.617L200.636 260.632L200.607 260.68L200.597 260.696L200.587 260.712L200.555 260.764C200.185 261.364 199.842 261.922 199.53 262.426C214.916 264.291 217.938 239.112 214.641 240.667C212.235 241.801 204.844 253.8 200.645 260.617ZM257.501 225.746C249.258 230.719 240.706 250.925 246.786 250.925C259.424 250.925 267.392 222.016 257.501 225.746ZM148.181 201.079C138.565 194.24 106.702 258.024 126.476 267.6C141.046 273.256 153.378 202.356 148.181 201.079Z" fill="#E84C09"/>
<path d="M345 2.5L15 2.5C8.09644 2.5 2.5 8.09644 2.5 15L2.5 345C2.5 351.904 8.09644 357.5 15 357.5L345 357.5C351.904 357.5 357.5 351.904 357.5 345L357.5 15C357.5 8.09644 351.904 2.5 345 2.5Z" stroke="#E84C09" stroke-width="5"/>
</svg>
