<svg width="25" height="30" viewBox="0 0 360 360" fill="none" xmlns="http://www.w3.org/2000/svg">
<path d="M5 15C5 9.47715 9.47715 5 15 5L345 5C350.523 5 355 9.47715 355 15L355 345C355 350.523 350.523 355 345 355L15 355C9.47715 355 5 350.523 5 345L5 15Z" fill="#13161C"/>
<path d="M287.417 290.925L181 316.974L180.941 317L74.6124 290.899L67.162 217.17L119.256 217.17L123.128 255.438L180.941 269.269L181 269.217L238.872 255.386L246.763 191.667L64.6688 192.109L59.5063 148.511L251.133 146.535L255.005 99.8698L54.3732 100.364L51 57.0001L311 57.0001L287.417 290.925Z" fill="#E84C09"/>
<path d="M345 2.5L15 2.5C8.09644 2.5 2.5 8.09644 2.5 15L2.5 345C2.5 351.904 8.09644 357.5 15 357.5L345 357.5C351.904 357.5 357.5 351.904 357.5 345L357.5 15C357.5 8.09644 351.904 2.5 345 2.5Z" stroke="#E84C09" stroke-width="5"/>
</svg>
