<svg width="42" height="42" viewBox="0 0 42 42" fill="none" xmlns="http://www.w3.org/2000/svg">
<path d="M40.9189 27.1385C40.9189 23.8117 33.8745 23.6533 33.8745 26.9801L33.8745 33.99L26.989 33.99C23.6459 33.99 23.6459 41 26.989 41L37.5758 41C40.0274 41 40.9189 38.5049 40.9189 37.6732L40.9189 27.1385Z" stroke="#FF4D00" stroke-width="2"/>
<path d="M27.1383 1.00005C23.8116 1.00005 23.6532 8.04445 26.9799 8.04445L33.9899 8.04445L33.9899 14.9299C33.9899 18.273 40.9999 18.273 40.9999 14.9299L40.9999 4.34315C40.9999 1.89149 38.5048 1.00005 37.6731 1.00005L27.1383 1.00005Z" stroke="#FF4D00" stroke-width="2"/>
<path d="M0.999879 14.8615C0.999879 18.1883 8.04429 18.3467 8.04429 15.0199L8.04429 8.00996L14.9298 8.00996C18.2729 8.00996 18.2729 1 14.9298 1L4.34299 1C1.89132 1 0.999879 3.49507 0.999879 4.32676L0.999879 14.8615Z" stroke="#FF4D00" stroke-width="2"/>
<path d="M14.8614 40.9189C18.1882 40.9189 18.3466 33.8745 15.0198 33.8745L8.00985 33.8745L8.00985 26.9891C8.00985 23.6459 0.999878 23.6459 0.999878 26.9891L0.999878 37.5758C0.999878 40.0275 3.49495 40.9189 4.32664 40.9189L14.8614 40.9189Z" stroke="#FF4D00" stroke-width="2"/>
</svg>
