<svg width="176" height="132" viewBox="0 0 176 132" fill="none" xmlns="http://www.w3.org/2000/svg">
<path d="M66.5 2H84.5V112H66.5V2Z" fill="#FF4D00"/>
<path d="M135 23.5L131 13.5L117.5 3H126.348L133.932 5L140.253 7.375L151.629 17L155.5 27.375V41.375L147.837 50L137.725 55L128.876 57H122.556L128.876 51L135 40.5L136.46 30.5L135 23.5Z" fill="#FF4D00"/>
<path d="M66.5588 112.1L82.0882 111L83.5 112.1L80.6765 118.7L72.2059 122H59.5L66.5588 112.1Z" fill="#FF4D00"/>
<g filter="url(#filter0_d_1_21)">
<path d="M121.5 57.1351H93.5L136 95.5H167L121.5 57.1351Z" fill="white"/>
<path d="M42 122C28.7132 122 25.692 110.829 25 105.784V84.5V52.3571H4H15.2568H5.5137V105.784C6.20572 110.829 7.79736 122 21.0841 122H42Z" fill="white"/>
<path d="M10.3853 52.3571C10.3853 52.5672 25 52.1489 25 52.3571M25 105.784C25.692 110.829 28.7132 122 42 122M25 105.784C25 84.8844 25 73.0756 25 52.3571M25 105.784V84.5V52.3571M42 122H73.4315M42 122H21.0841M73.4315 122C80.6977 120.919 84.5822 114.432 84.5822 105.784V2M73.4315 122H53.34M84.5822 2H123.557M84.5822 2H66.5M123.557 2C131.515 3.44144 155.5 11.5135 155.5 32.2703C155.5 53.027 131.515 57.4955 123.557 57.1351H113.191M123.557 2H111.392M109.354 57.1351H113.191M5.5137 51.7297C5.5137 51.9398 5.5137 52.1489 5.5137 52.3571M5.5137 105.784C6.20572 110.829 7.79736 122 21.0841 122M5.5137 105.784V52.3571M5.5137 105.784C5.5137 84.8844 5.5137 73.0756 5.5137 52.3571M21.0841 122C36.7766 122 37.6476 122 53.34 122M53.34 122C60.6062 120.919 66.5 114.432 66.5 105.784V2M66.5 2H111.392M111.392 2C119.351 3.44144 135.267 11.5135 135.267 32.2703C135.267 51.56 121.521 56.7825 113.191 57.1351M121.5 57.1351H93.5L136 95.5H167L121.5 57.1351ZM121.5 57.1351C128.481 57.1351 112.557 57.162 113.191 57.1351M4.5 52.3571C4.84705 52.3571 5.18455 52.3571 5.5137 52.3571M18.6918 52.3571C18.3447 52.3571 25.3291 52.3571 25 52.3571M25 52.3571C20.4019 52.3571 10.1118 52.3571 5.5137 52.3571M25 52.3571H4H15.2568H5.5137" stroke="black" stroke-width="3"/>
</g>
<defs>
<filter id="filter0_d_1_21" x="0" y="0.5" width="175.106" height="131" filterUnits="userSpaceOnUse" color-interpolation-filters="sRGB">
<feFlood flood-opacity="0" result="BackgroundImageFix"/>
<feColorMatrix in="SourceAlpha" type="matrix" values="0 0 0 0 0 0 0 0 0 0 0 0 0 0 0 0 0 0 127 0" result="hardAlpha"/>
<feOffset dy="4"/>
<feGaussianBlur stdDeviation="2"/>
<feComposite in2="hardAlpha" operator="out"/>
<feColorMatrix type="matrix" values="0 0 0 0 0 0 0 0 0 0 0 0 0 0 0 0 0 0 0.25 0"/>
<feBlend mode="normal" in2="BackgroundImageFix" result="effect1_dropShadow_1_21"/>
<feBlend mode="normal" in="SourceGraphic" in2="effect1_dropShadow_1_21" result="shape"/>
</filter>
</defs>
</svg>
