<svg width="190" height="163" viewBox="0 0 190 163" fill="none" xmlns="http://www.w3.org/2000/svg">
<path d="M7.54316 110.362C27.1368 21.5028 70.3589 87.8122 104.319 16.1117C94.8892 105.227 38.8334 59.987 7.54316 110.362Z" fill="white"/>
<path d="M4.25616 155.588C32.8886 125.13 77.4099 122.044 114.868 112.88C109.521 154.724 155.693 184.251 154.972 96.3622C181.042 79.3255 193.53 70.9542 182.882 1.02846C181.202 38.175 171.657 37.1618 154.609 52.1342C132.363 15.8816 111.528 52.4877 114.551 74.1557C66.8345 91.2848 11.3764 93.6839 4.25616 155.588Z" fill="white"/>
<path d="M7.54316 110.362C27.1368 21.5028 70.3589 87.8122 104.319 16.1117C94.8892 105.227 38.8334 59.987 7.54316 110.362Z" stroke="#FF4D00" stroke-width="5"/>
<path d="M4.25616 155.588C32.8886 125.13 77.4099 122.044 114.868 112.88C109.521 154.724 155.693 184.251 154.972 96.3622C181.042 79.3255 193.53 70.9542 182.882 1.02846C181.202 38.175 171.657 37.1618 154.609 52.1342C132.363 15.8816 111.528 52.4877 114.551 74.1557C66.8345 91.2848 11.3764 93.6839 4.25616 155.588Z" stroke="#FF4D00" stroke-width="5"/>
</svg>
