<svg width="360" height="360" viewBox="0 0 360 360" fill="none" xmlns="http://www.w3.org/2000/svg">
<path d="M5 15C5 9.47715 9.47715 5 15 5L345 5C350.523 5 355 9.47715 355 15L355 345C355 350.523 350.523 355 345 355L15 355C9.47715 355 5 350.523 5 345L5 15Z" fill="#13161C"/>
<path d="M305.382 100.881L106.719 100.881L111.455 147.905L300.646 147.905L286.407 288.901L180.015 314.974L179.956 315L73.6229 288.901L66.163 215.154L118.264 215.154L122.112 253.418L179.926 267.247L180.015 267.195L237.888 253.366L243.927 193.812L64.0317 193.812L50 54.9999L310 54.9999L305.382 100.881Z" fill="#E84C09"/>
<path d="M345 2.5L15 2.5C8.09644 2.5 2.5 8.09644 2.5 15L2.5 345C2.5 351.904 8.09644 357.5 15 357.5L345 357.5C351.904 357.5 357.5 351.904 357.5 345L357.5 15C357.5 8.09644 351.904 2.5 345 2.5Z" stroke="#E84C09" stroke-width="5"/>
</svg>
