<svg width="360" height="360" viewBox="0 0 360 360" fill="none" xmlns="http://www.w3.org/2000/svg">
<path d="M5 15C5 9.47715 9.47715 5 15 5L345 5C350.523 5 355 9.47715 355 15L355 345C355 350.523 350.523 355 345 355L15 355C9.47715 355 5 350.523 5 345L5 15Z" fill="#13161C"/>
<path d="M218.326 224.384C228.106 240.091 240.831 251.637 263.337 251.637C282.243 251.637 294.32 242.343 294.32 229.502C294.32 214.113 281.912 208.663 261.102 199.711L249.694 194.897C216.769 181.1 194.895 163.817 194.895 127.279C194.895 93.6218 220.969 68.0002 261.717 68.0002C290.728 68.0002 311.584 77.9302 326.613 103.931L291.082 126.37C283.259 112.573 274.82 107.138 261.717 107.138C248.353 107.138 239.882 115.477 239.882 126.37C239.882 139.833 248.36 145.283 267.937 153.622L279.344 158.427C318.112 174.778 340 191.447 340 228.925C340 269.329 307.729 291.464 264.391 291.464C222.016 291.464 194.639 271.603 181.244 245.572L218.326 224.384ZM57.1418 228.273C64.3095 240.781 70.8304 251.356 86.5069 251.356C101.498 251.356 110.955 245.587 110.955 223.157L110.955 70.5624L156.583 70.5624L156.583 223.762C156.583 270.23 128.883 291.38 88.4492 291.38C51.9163 291.38 30.7602 272.785 20 250.389L57.1418 228.273Z" fill="#E84C09"/>
<path d="M345 2.5L15 2.5C8.09644 2.5 2.5 8.09644 2.5 15L2.5 345C2.5 351.904 8.09644 357.5 15 357.5L345 357.5C351.904 357.5 357.5 351.904 357.5 345L357.5 15C357.5 8.09644 351.904 2.5 345 2.5Z" stroke="#E84C09" stroke-width="5"/>
</svg>
