<svg width="26" height="46" viewBox="0 0 26 46" fill="none" xmlns="http://www.w3.org/2000/svg">
  <path d="M7.31323 2.29254L24.3564 22.7444C24.4135 22.8129 24.4448 22.8992 24.4448 22.9884C24.4448 23.0775 24.4135 23.1639 24.3564 23.2324L7.31332 43.6841C5.21735 46.1993 1.12381 44.8024 1.00263 41.5306C0.973028 40.7313 1.21264 39.9453 1.68306 39.2985L12.4594 24.481C12.7749 24.0472 12.9448 23.5246 12.9448 22.9882C12.9447 22.4519 12.7748 21.9295 12.4594 21.4958L1.68297 6.67818C1.21255 6.03136 0.972939 5.24532 1.00254 4.44608C1.12372 1.1743 5.21727 -0.222618 7.31323 2.29254Z" stroke="#FF4D00" fill="#f07e4d" stroke-width="2"/>
</svg>