<svg width="130" height="141" viewBox="0 0 390 423" fill="none" xmlns="http://www.w3.org/2000/svg">
<path d="M276.311 234.277C282.063 221.545 287.083 197.402 288.875 186.923C322.757 182.992 387.064 171.588 389.247 156.113C391.911 137.241 377.021 132.966 297.253 113.017C295.612 110.831 291.321 98.8459 287.282 68.3958C282.233 30.3331 290.679 34.9337 266.93 13.6503C244.08 0.877938 182.788 -8.55041 128.94 12.0117C120.59 13.4126 104.186 24.8186 105.378 59.2352C104.041 73.5537 99.9473 103.874 94.267 110.607C65.2255 113.929 5.77491 126.257 0.304553 148.994C-5.1658 171.731 64.4141 182.257 99.8878 184.679C101.581 196.533 106.337 222.658 111.823 232.324L103.205 242.222L106.044 255.757C95.9322 265.138 63.2768 286.451 13.5521 296.662C16.0801 308.359 24.8167 333.398 39.5397 339.973C66.6589 344.129 135.431 366.514 187.567 422.737L195.567 422.832C249.028 367.463 318.98 346.625 347.524 343.13C360.894 328.888 369.089 309.717 371.515 301.912C327.627 292.191 293.557 269.818 282.008 259.847L285.204 243.383L276.311 234.277Z" fill="black"/>
<path d="M188.216 410.243L188.465 389.245C188.507 385.745 151.235 366.301 114.029 341.358C84.2634 321.403 80.7537 294.126 82.7195 282.982C67.1968 284.798 30.5094 300.363 30.4975 301.363C21.2934 301.654 34.1386 317.574 41.7118 325.498L115.945 348.381C146.139 365.941 172.087 392.884 181.288 404.161L188.216 410.243Z" fill="#8D725D"/>
<path d="M191.701 327.279L193.654 162.806C184.169 162.693 179.211 158.634 177.917 156.619C165.47 139.672 128.055 139.361 110.903 141.324C134.78 236.097 168.666 288.003 191.701 327.279Z" fill="white"/>
<path d="M194.701 327.315L196.654 162.841C206.139 162.954 211.192 159.014 212.534 157.03C225.38 140.383 262.791 140.961 279.892 143.33C253.771 237.51 218.662 288.597 194.701 327.315Z" fill="#251A18"/>
<path d="M278.844 147.301C255.154 193.18 231.902 202.136 213.337 189.606C216.146 201.949 232.686 205.223 239.768 203.255C260.52 197.49 272.273 161.584 278.844 147.301Z" fill="#8D725D"/>
<path d="M158.394 142.379C145.935 138.85 150.398 141.966 110.421 139.801C121.848 188.178 150.092 195.819 162.272 194.837C173.052 193.967 183.424 182.126 183.518 174.237L183.678 160.713C177.212 157.819 175.273 152.723 175.273 152.723C175.273 152.723 171.27 146.026 158.394 142.379Z" fill="black"/>
<path d="M232.395 142.775C244.934 139.513 240.398 142.55 280.415 141.319C267.838 189.835 239.419 196.868 227.267 195.586C216.51 194.452 206.424 182.263 206.518 174.305L206.68 160.662C213.214 157.897 215.274 152.805 215.274 152.805C215.274 152.805 219.435 146.147 232.395 142.775Z" fill="black"/>
<path d="M126.718 156.996C133.761 153.412 153.587 151.414 176.543 172.088C168.587 182.328 137.915 182.63 126.718 156.996Z" fill="white"/>
<path d="M266.709 158.612C259.754 154.803 239.982 152.298 216.538 172.751C224.246 183.343 254.902 184.385 266.709 158.612Z" fill="white"/>
<path d="M195.172 161.309L195.237 155.809C196.237 155.821 203.511 153.604 208.308 149.964C212.849 146.518 214.432 139.536 233.466 136.762C248.694 134.542 276.126 137.602 287.939 139.409C285.703 226.588 235.617 292.465 210.854 314.506C270.514 242.409 283.42 169.024 282.415 141.343C241.237 139.254 215.743 149.689 214.277 152.535C210.183 160.487 198.325 162.513 195.172 161.309Z" fill="#8D725D"/>
<path d="M194.673 161.255L194.738 155.754C193.738 155.742 186.518 153.352 181.81 149.598C177.352 146.044 175.935 139.025 156.972 135.798C141.802 133.217 114.305 135.625 102.452 137.152C102.616 224.387 151.124 291.455 175.357 314.084C117.425 240.569 106.266 166.875 107.928 139.217C149.144 138.106 174.383 149.147 175.781 152.028C179.685 160.077 191.492 162.385 194.673 161.255Z" fill="#251A18"/>
<path d="M274.145 248.252L271.199 243.717C263.638 274.029 224.014 315.162 205.147 331.939C266.446 290.264 276.687 258.783 274.145 248.252Z" fill="white"/>
<path d="M184.589 336.695C150.152 305.884 127.823 260.516 119.216 241.413C112.867 228.59 117.091 251.888 114.026 257.352C111.574 261.723 185.97 346.713 184.589 336.695Z" fill="white"/>
<path d="M157.799 360.879C105.059 338.751 81.747 295.138 82.2188 283.476C102.75 272.519 108.252 266.784 108.437 265.286C129.372 355.041 168.364 355.504 157.799 360.879Z" fill="white"/>
<path d="M65.6802 328.283C50.143 322.898 42.9058 323.179 41.2294 323.992C39.1999 326.468 61.5795 336.735 90.9706 346.084C114.483 353.564 161.967 388.93 182.769 405.679C170.958 389.704 138.373 354.548 102.523 341.721C66.673 328.895 42.5207 313.507 34.9258 307.416C36.8354 315.039 56.2244 324.504 65.6802 328.283Z" fill="white"/>
<path d="M285.7 117.381C153.528 97.4098 55.1331 121.643 22.4573 136.256C74.0902 125.369 172.048 129.532 182.005 133.15C189.972 136.045 196.324 134.487 198.504 133.346C222.631 122.832 266.687 118.322 285.7 117.381Z" fill="white"/>
<path d="M368.915 141.87C367.001 134.647 312.522 122.63 285.248 117.472C278.784 114.395 224.274 123.205 234.657 124.872C244.09 126.387 321.025 132.301 357.416 141.734C370.377 145.093 370.054 144.217 368.915 141.87Z" fill="#8D725D"/>
<path d="M201.043 45.8701C201.646 79.3796 191.051 87.2544 191.034 88.7543C164.522 89.6062 110.994 91.6042 108.98 92.7803C106.462 94.2505 115.454 52.8544 116.144 36.8615C116.696 24.0671 133.885 16.7373 142.41 14.6717C156.942 12.0108 187.9 7.31135 195.471 9.80143C204.935 12.914 200.441 12.3606 201.043 45.8701Z" fill="#251A18"/>
<path d="M220.406 99.6041C198.827 97.7477 136.02 103.602 107.314 106.762C104.361 102.726 116.884 100.875 119.414 98.4048C121.943 95.9347 111.932 96.8159 107.456 94.7626C103.875 93.1199 117.344 90.213 124.526 88.9648C123.613 67.6192 124.605 23.3612 135.88 17.0947C147.155 10.8281 171.483 8.68341 182.478 9.14733C171.949 11.5225 150.748 19.8714 148.249 28.2423C145.124 38.706 146.1 40.7177 147.922 55.7404C149.38 67.7585 145.963 80.3855 144.072 85.1967C232.866 86.2511 254.68 90.8438 254.487 93.0084C208.074 85.4568 118.931 96.899 137.454 95.1188C155.976 93.3386 247.381 101.925 220.406 99.6041Z" fill="white"/>
<path d="M195.721 409.833L195.976 388.334C267.665 347.583 318.291 334.45 334.643 332.977C255.126 359.235 208.896 395.155 195.721 409.833Z" fill="#8D725D"/>
</svg>
