<svg width="26" height="46" viewBox="0 0 26 46" fill="none" xmlns="http://www.w3.org/2000/svg">
  <path d="M18.1316 43.684L1.08838 23.2322C1.03131 23.1637 1.00005 23.0774 1.00004 22.9882C1.00004 22.899 1.03129 22.8127 1.08838 22.7442L18.1315 2.29244C20.2275 -0.222723 24.321 1.1742 24.4422 4.44597C24.4718 5.24522 24.2322 6.03126 23.7618 6.67808L12.9854 21.4956C12.6699 21.9294 12.5 22.452 12.5 22.9884C12.5001 23.5246 12.67 24.0471 12.9854 24.4808L23.7619 39.2984C24.2323 39.9452 24.4719 40.7312 24.4423 41.5305C24.3211 44.8023 20.2276 46.1992 18.1316 43.684Z" stroke="#FF4D00" fill="#f07e4d" stroke-width="2"/>
</svg>  