<svg width="40" height="40" viewBox="0 0 42 42" fill="none" xmlns="http://www.w3.org/2000/svg">
  <path d="M40.9192 27.1385C40.9192 23.8117 33.8748 23.6533 33.8748 26.9801L33.8748 33.99L26.9893 33.99C23.6462 33.99 23.6462 41 26.9893 41L37.5761 41C40.0278 41 40.9192 38.5049 40.9192 37.6732L40.9192 27.1385Z" stroke="#FF4D00" fill="#f07e4d" stroke-width="2"/>
  <path d="M27.1387 1.00005C23.8119 1.00005 23.6535 8.04445 26.9803 8.04445L33.9903 8.04445L33.9903 14.9299C33.9903 18.273 41.0002 18.273 41.0002 14.9299L41.0002 4.34315C41.0002 1.89149 38.5052 1.00005 37.6735 1.00005L27.1387 1.00005Z" stroke="#FF4D00" fill="#f07e4d" stroke-width="2"/>
  <path d="M1.00025 14.8615C1.00025 18.1883 8.04466 18.3467 8.04466 15.0199L8.04466 8.00996L14.9301 8.00996C18.2733 8.00996 18.2733 1 14.9301 1L4.34335 1C1.89169 1 1.00025 3.49507 1.00025 4.32676L1.00025 14.8615Z" stroke="#FF4D00" fill="#f07e4d" stroke-width="2"/>
  <path d="M14.8618 40.9189C18.1885 40.9189 18.347 33.8745 15.0202 33.8745L8.01022 33.8745L8.01022 26.9891C8.01022 23.6459 1.00024 23.6459 1.00024 26.9891L1.00024 37.5758C1.00024 40.0275 3.49532 40.9189 4.32701 40.9189L14.8618 40.9189Z" stroke="#FF4D00" fill="#f07e4d" stroke-width="2"/>
</svg>