<svg width="50" height="47" viewBox="0 0 100 94" fill="none" xmlns="http://www.w3.org/2000/svg">
  <path d="M90.5365 17.7804L9.36573 17.7804C7.14781 17.7804 5.0202 16.8971 3.4511 15.3239C1.88191 13.7506 0.999878 11.6163 0.999878 9.39022C0.999878 7.16416 1.88191 5.02979 3.4511 3.45652C5.0202 1.88333 7.14781 1 9.36573 1L90.5365 1C92.7544 1 94.882 1.88333 96.4511 3.45652C98.0203 5.02979 98.9023 7.16416 98.9023 9.39022C98.9023 11.6163 98.0203 13.7506 96.4511 15.3239C94.882 16.8971 92.7544 17.7804 90.5365 17.7804ZM90.5365 55.3413L9.36578 55.3413C7.14786 55.3413 5.02025 54.458 3.45115 52.8848C1.88195 51.3115 0.999925 49.1772 0.999925 46.9511C0.999925 44.7251 1.88195 42.5907 3.45115 41.0174C5.02025 39.4442 7.14786 38.5609 9.36578 38.5609L90.5365 38.5609C92.7544 38.5609 94.882 39.4442 96.4511 41.0174C98.0203 42.5907 98.9024 44.7251 98.9024 46.9511C98.9024 49.1772 98.0203 51.3115 96.4511 52.8848C94.882 54.458 92.7544 55.3413 90.5365 55.3413ZM90.634 93L9.46329 93C7.24536 93 5.11775 92.1167 3.54865 90.5435C1.97946 88.9702 1.09743 86.8358 1.09743 84.6098C1.09743 82.3837 1.97946 80.2494 3.54865 78.6761C5.11775 77.1029 7.24536 76.2196 9.46329 76.2196L90.634 76.2196C92.852 76.2196 94.9796 77.1029 96.5487 78.6761C98.1179 80.2494 98.9999 82.3837 98.9999 84.6098C98.9999 86.8358 98.1179 88.9702 96.5487 90.5435C94.9796 92.1167 92.852 93 90.634 93Z" fill="#F07E4D" stroke="#E84C09" stroke-width="2"/>
</svg> 