<svg width="394" height="452" viewBox="0 0 394 452" fill="none" xmlns="http://www.w3.org/2000/svg">
<path d="M279.276 251.342C284.876 238.542 289.609 214.342 291.276 203.842C325.109 199.508 389.276 187.341 391.276 171.842C393.715 152.939 378.776 148.842 298.776 129.842C297.109 127.675 292.676 115.742 288.276 85.3416C282.776 47.3416 291.276 51.8416 267.276 30.8416C244.276 18.3415 182.876 9.64155 129.276 30.8416C120.942 32.3415 104.676 43.9415 106.276 78.3415C105.109 92.6749 101.376 123.042 95.7755 129.842C66.7755 133.508 7.47551 146.541 2.27551 169.341C-2.92449 192.141 66.7755 201.842 102.276 203.842C104.109 215.675 109.176 241.742 114.776 251.342L106.276 261.341L109.276 274.842C99.2755 284.342 66.8755 306.042 17.2755 316.842C19.9422 328.508 28.9755 353.442 43.7755 359.842C70.9422 363.675 139.976 385.242 192.776 440.842H195.776L200.776 440.842C253.576 384.842 323.276 363.175 351.776 359.342C364.976 344.942 372.942 325.675 375.276 317.842C331.276 308.642 296.942 286.675 285.276 276.842L288.276 260.341L279.276 251.342Z" fill="black"/>
<path d="M193.275 428.342V407.342C193.275 403.842 155.776 384.842 118.276 360.342C88.2755 340.742 84.4422 313.508 86.2755 302.342C70.7755 304.342 34.2755 320.342 34.2755 321.342C25.0755 321.742 38.1088 337.508 45.7755 345.342L120.275 367.342C150.675 384.542 176.942 411.175 186.275 422.342L193.275 428.342Z" fill="#8D725D"/>
<path d="M195.776 345.342V180.856C186.29 180.856 181.283 176.857 179.966 174.857C167.318 158.059 129.902 158.192 112.776 160.359C137.776 254.842 172.276 306.342 195.776 345.342Z" fill="white" stroke="white" stroke-width="3"/>
<path d="M198.776 345.342V180.856C208.261 180.856 213.268 176.857 214.585 174.857C227.233 158.059 264.649 158.192 281.776 160.359C256.776 254.842 222.276 306.342 198.776 345.342Z" fill="#251A18" stroke="#251A18" stroke-width="3"/>
<path d="M280.776 164.342C257.632 210.498 234.488 219.73 215.776 207.421C218.73 219.73 235.308 222.807 242.366 220.756C263.048 214.744 274.374 178.701 280.776 164.342Z" fill="#8D725D"/>
<path d="M160.276 160.85C147.776 157.469 152.276 160.532 112.276 158.842C124.276 207.079 152.609 214.385 164.776 213.258C175.545 212.26 185.776 200.297 185.776 192.407V178.883C179.276 176.065 177.276 170.993 177.276 170.993C177.276 170.993 173.194 164.344 160.276 160.85Z" fill="black" stroke="black" stroke-width="3"/>
<path d="M234.276 160.367C246.776 156.957 242.276 160.047 282.276 158.342C270.276 207.003 241.942 214.373 229.776 213.236C219.006 212.229 208.776 200.161 208.776 192.202V178.559C215.276 175.716 217.276 170.6 217.276 170.6C217.276 170.6 221.357 163.892 234.276 160.367Z" fill="black" stroke="black" stroke-width="3"/>
<path d="M128.776 175.842C135.776 172.175 155.576 169.942 178.776 190.342C170.942 200.675 140.276 201.342 128.776 175.842Z" fill="white"/>
<path d="M268.776 175.795C261.776 172.069 241.976 169.8 218.776 190.529C226.609 201.029 257.276 201.707 268.776 175.795Z" fill="white"/>
<path d="M197.276 179.341V173.842C198.276 173.842 205.523 171.538 210.276 167.842C214.776 164.342 216.276 157.341 235.276 154.341C250.476 151.941 277.942 154.675 289.776 156.341C288.576 243.541 239.276 310.008 214.776 332.342C273.576 259.542 285.609 186.008 284.276 158.341C243.076 156.741 217.707 167.478 216.276 170.342C212.276 178.342 200.442 180.508 197.276 179.341Z" fill="#8D725D" stroke="#8D725D"/>
<path d="M196.776 179.294V173.793C195.776 173.793 188.528 171.488 183.776 167.791C179.276 164.29 177.776 157.288 158.776 154.287C143.576 151.886 116.109 154.62 104.276 156.287C105.476 243.514 154.776 310.001 179.276 332.342C120.476 259.519 108.442 185.963 109.776 158.288C150.976 156.687 176.344 167.427 177.776 170.292C181.776 178.294 193.609 180.461 196.776 179.294Z" fill="#251A18" stroke="#251A18"/>
<path d="M277.276 265.342L274.276 260.842C267.076 291.242 227.942 332.842 209.276 349.842C270.076 307.442 279.942 275.842 277.276 265.342Z" fill="white"/>
<path d="M188.776 354.842C153.976 324.442 131.109 279.342 122.276 260.342C115.776 247.596 120.276 270.842 117.276 276.342C114.876 280.742 190.276 364.842 188.776 354.842Z" fill="white"/>
<path d="M162.275 379.342C109.276 357.842 85.4475 314.508 85.7808 302.842C106.181 291.642 111.614 285.842 111.781 284.342C133.781 373.842 172.776 373.842 162.275 379.342Z" fill="white"/>
<path d="M69.7755 347.842C54.1755 342.642 46.9422 343.008 45.2755 343.842C43.2755 346.342 65.7755 356.342 95.2755 365.342C118.876 372.542 166.776 407.342 187.776 423.842C175.776 408.008 142.776 373.242 106.776 360.842C70.7755 348.442 46.4422 333.342 38.7755 327.342C40.7755 334.942 60.2755 344.175 69.7755 347.842Z" fill="white"/>
<path d="M287.276 134.342C154.876 115.942 56.7755 141.342 24.2755 156.342C75.7755 144.842 173.776 147.842 183.776 151.342C191.776 154.142 198.109 152.508 200.276 151.342C224.276 140.542 268.276 135.508 287.276 134.342Z" fill="white"/>
<path d="M370.775 157.841C368.775 150.641 314.158 139.272 286.825 134.439C280.325 131.439 225.923 140.895 236.325 142.439C245.775 143.842 322.775 148.842 359.275 157.841C372.275 161.047 371.942 160.175 370.775 157.841Z" fill="#8D725D"/>
<path d="M201.776 63.8415C202.776 97.3415 192.276 105.341 192.276 106.841C165.776 108.008 112.276 110.642 110.276 111.842C107.776 113.342 116.276 71.8416 116.776 55.8416C117.176 43.0416 134.276 35.5082 142.776 33.3415C157.276 30.5082 188.176 25.4415 195.776 27.8415C205.276 30.8415 200.776 30.3415 201.776 63.8415Z" fill="#251A18"/>
<path d="M221.776 117.342C200.176 115.742 137.442 122.342 108.776 125.842C105.776 121.842 118.276 119.842 120.776 117.342C123.276 114.842 113.276 115.842 108.776 113.842C105.176 112.242 118.609 109.175 125.776 107.842C124.609 86.5083 125.076 42.2417 136.276 35.8417C147.476 29.4417 171.776 27.0083 182.776 27.3416C172.276 29.8416 151.176 38.4417 148.776 46.8417C145.776 57.3417 146.776 59.3417 148.776 74.3417C150.376 86.3417 147.109 99.0084 145.276 103.842C234.076 103.842 255.942 108.175 255.776 110.342C209.276 103.342 120.276 115.842 138.776 113.842C157.276 111.842 248.776 119.342 221.776 117.342Z" fill="white"/>
<path d="M200.776 427.842V406.342C271.976 364.742 322.442 351.008 338.776 349.342C259.576 376.542 213.776 413.008 200.776 427.842Z" fill="#8D725D"/>
</svg>
